<svg version="1.1" viewBox="0.0 0.0 648.0656167979002 453.03937007874015" fill="white" stroke="none" stroke-linecap="square" stroke-miterlimit="10" xmlns:xlink="http://www.w3.org/1999/xlink" xmlns="http://www.w3.org/2000/svg"><clipPath id="p.0"><path d="m0 0l648.0656 0l0 453.03937l-648.0656 0l0 -453.03937z" clip-rule="nonzero"/></clipPath><g clip-path="url(#p.0)"><path fill="#000000" fill-opacity="0.0" d="m0 0l648.0656 0l0 453.03937l-648.0656 0z" fill-rule="evenodd"/><path fill="#000000" fill-opacity="0.0" d="m71.44749 2.0317743l497.85825 0l0 42.01575l-497.85825 0z" fill-rule="evenodd"/><path fill="#000000" d="m87.57249 29.139273q-1.734375 0 -3.09375 -0.84375q-1.359375 -0.84375 -2.140625 -2.40625q-0.78125 -1.5625 -0.78125 -3.71875q0 -2.15625 0.78125 -3.71875q0.78125 -1.5625 2.140625 -2.40625q1.359375 -0.84375 3.09375 -0.84375q1.03125 0 1.953125 0.296875q0.921875 0.296875 1.640625 0.875q0.734375 0.578125 1.21875 1.40625q0.484375 0.828125 0.671875 1.875l-1.734375 0q-0.140625 -0.703125 -0.5 -1.234375q-0.34375 -0.53125 -0.859375 -0.890625q-0.5 -0.359375 -1.109375 -0.546875q-0.609375 -0.1875 -1.28125 -0.1875q-1.21875 0 -2.203125 0.625q-0.984375 0.625 -1.5625 1.828125q-0.5625 1.1875 -0.5625 2.921875q0 1.734375 0.578125 2.9375q0.578125 1.1875 1.5625 1.8125q0.984375 0.609375 2.1875 0.609375q0.671875 0 1.28125 -0.1875q0.609375 -0.1875 1.109375 -0.546875q0.515625 -0.359375 0.859375 -0.890625q0.359375 -0.53125 0.5 -1.21875l1.734375 0q-0.171875 1.03125 -0.671875 1.859375q-0.484375 0.8125 -1.21875 1.40625q-0.71875 0.578125 -1.640625 0.890625q-0.90625 0.296875 -1.953125 0.296875zm12.080933 0.03125q-1.375 0 -2.421875 -0.65625q-1.046875 -0.65625 -1.625 -1.84375q-0.578125 -1.1875 -0.578125 -2.75q0 -1.59375 0.578125 -2.78125q0.578125 -1.1875 1.625 -1.84375q1.046875 -0.65625 2.421875 -0.65625q1.40625 0 2.453125 0.65625q1.046875 0.65625 1.625 1.84375q0.578125 1.1875 0.578125 2.78125q0 1.5625 -0.578125 2.75q-0.578125 1.1875 -1.625 1.84375q-1.046875 0.65625 -2.453125 0.65625zm0 -1.46875q1.03125 0 1.6875 -0.53125q0.671875 -0.53125 0.984375 -1.390625q0.328125 -0.859375 0.328125 -1.859375q0 -1.015625 -0.328125 -1.875q-0.3125 -0.875 -0.984375 -1.40625q-0.65625 -0.53125 -1.6875 -0.53125q-1.015625 0 -1.671875 0.53125q-0.65625 0.53125 -0.984375 1.40625q-0.3125 0.859375 -0.3125 1.875q0 1.0 0.3125 1.859375q0.328125 0.859375 0.984375 1.390625q0.65625 0.53125 1.671875 0.53125zm8.686462 -4.859375l0 6.109375l-1.640625 0l0 -10.1875l1.578125 0l0.015625 2.46875l-0.234375 0q0.46875 -1.40625 1.328125 -2.0q0.859375 -0.59375 2.015625 -0.59375q1.03125 0 1.796875 0.421875q0.78125 0.421875 1.203125 1.28125q0.4375 0.84375 0.4375 2.140625l0 6.46875l-1.640625 0l0 -6.328125q0 -1.171875 -0.609375 -1.84375q-0.609375 -0.671875 -1.6875 -0.671875q-0.71875 0 -1.3125 0.328125q-0.578125 0.3125 -0.921875 0.921875q-0.328125 0.609375 -0.328125 1.484375zm13.522491 6.328125q-1.375 0 -2.421875 -0.65625q-1.046875 -0.65625 -1.625 -1.84375q-0.578125 -1.1875 -0.578125 -2.75q0 -1.59375 0.578125 -2.78125q0.578125 -1.1875 1.625 -1.84375q1.046875 -0.65625 2.421875 -0.65625q0.75 0 1.40625 0.203125q0.65625 0.1875 1.1875 0.546875q0.546875 0.359375 0.9375 0.890625q0.390625 0.515625 0.59375 1.171875l-1.5625 0.453125q-0.109375 -0.390625 -0.34375 -0.71875q-0.234375 -0.328125 -0.5625 -0.5625q-0.3125 -0.25 -0.734375 -0.375q-0.421875 -0.140625 -0.921875 -0.140625q-1.015625 0 -1.671875 0.53125q-0.65625 0.53125 -0.984375 1.40625q-0.3125 0.859375 -0.3125 1.875q0 1.0 0.3125 1.859375q0.328125 0.859375 0.984375 1.390625q0.65625 0.53125 1.671875 0.53125q0.515625 0 0.9375 -0.125q0.4375 -0.140625 0.765625 -0.390625q0.328125 -0.25 0.5625 -0.59375q0.234375 -0.359375 0.34375 -0.765625l1.5625 0.453125q-0.203125 0.671875 -0.609375 1.21875q-0.390625 0.53125 -0.9375 0.90625q-0.546875 0.375 -1.21875 0.5625q-0.65625 0.203125 -1.40625 0.203125zm9.970604 -0.09375q-1.03125 0 -1.8125 -0.421875q-0.765625 -0.421875 -1.203125 -1.28125q-0.4375 -0.859375 -0.4375 -2.140625l0 -6.46875l1.640625 0l0 6.328125q0 1.1875 0.609375 1.859375q0.625 0.65625 1.703125 0.65625q0.71875 0 1.296875 -0.3125q0.578125 -0.328125 0.90625 -0.9375q0.34375 -0.625 0.34375 -1.484375l0 -6.109375l1.65625 0l0 10.1875l-1.59375 0l0 -2.46875l0.21875 0q-0.46875 1.4375 -1.34375 2.015625q-0.859375 0.578125 -1.984375 0.578125zm7.578476 -0.125l0 -10.1875l1.59375 0l0 1.5625l0.109375 0q0.28125 -0.765625 1.0 -1.234375q0.71875 -0.46875 1.640625 -0.46875q0.171875 0 0.421875 0.015625q0.25 0 0.40625 0.015625l0 1.640625q-0.078125 -0.015625 -0.375 -0.046875q-0.28125 -0.046875 -0.609375 -0.046875q-0.734375 0 -1.3125 0.3125q-0.578125 0.296875 -0.90625 0.84375q-0.328125 0.53125 -0.328125 1.21875l0 6.375l-1.640625 0zm7.315094 0l0 -10.1875l1.59375 0l0 1.5625l0.109375 0q0.28125 -0.765625 1.0 -1.234375q0.71875 -0.46875 1.640625 -0.46875q0.171875 0 0.421875 0.015625q0.25 0 0.40625 0.015625l0 1.640625q-0.078125 -0.015625 -0.375 -0.046875q-0.28125 -0.046875 -0.609375 -0.046875q-0.734375 0 -1.3125 0.3125q-0.578125 0.296875 -0.90625 0.84375q-0.328125 0.53125 -0.328125 1.21875l0 6.375l-1.640625 0zm10.9947815 0.21875q-1.46875 0 -2.546875 -0.65625q-1.0625 -0.65625 -1.640625 -1.828125q-0.578125 -1.171875 -0.578125 -2.75q0 -1.5625 0.5625 -2.75q0.5625 -1.203125 1.59375 -1.875q1.03125 -0.671875 2.421875 -0.671875q0.8125 0 1.59375 0.265625q0.796875 0.265625 1.4375 0.875q0.640625 0.59375 1.015625 1.578125q0.390625 0.96875 0.390625 2.375l0 0.6875l-7.90625 0l0 -1.390625l7.015625 0l-0.765625 0.515625q0 -1.0 -0.3125 -1.78125q-0.3125 -0.78125 -0.9375 -1.21875q-0.609375 -0.453125 -1.53125 -0.453125q-0.921875 0 -1.578125 0.453125q-0.65625 0.453125 -1.0 1.1875q-0.34375 0.71875 -0.34375 1.546875l0 0.921875q0 1.125 0.390625 1.921875q0.390625 0.78125 1.09375 1.1875q0.703125 0.40625 1.640625 0.40625q0.59375 0 1.078125 -0.171875q0.5 -0.171875 0.859375 -0.515625q0.359375 -0.359375 0.546875 -0.890625l1.578125 0.4375q-0.234375 0.765625 -0.796875 1.359375q-0.5625 0.578125 -1.40625 0.90625q-0.828125 0.328125 -1.875 0.328125zm-0.875 -11.734375l-1.765625 -2.671875l1.84375 0l1.265625 2.671875l-1.34375 0zm9.1111145 5.40625l0 6.109375l-1.640625 0l0 -10.1875l1.578125 0l0.015625 2.46875l-0.234375 0q0.46875 -1.40625 1.328125 -2.0q0.859375 -0.59375 2.015625 -0.59375q1.03125 0 1.796875 0.421875q0.78125 0.421875 1.203125 1.28125q0.4375 0.84375 0.4375 2.140625l0 6.46875l-1.640625 0l0 -6.328125q0 -1.171875 -0.609375 -1.84375q-0.609375 -0.671875 -1.6875 -0.671875q-0.71875 0 -1.3125 0.328125q-0.578125 0.3125 -0.921875 0.921875q-0.328125 0.609375 -0.328125 1.484375zm13.522491 6.328125q-1.375 0 -2.421875 -0.65625q-1.046875 -0.65625 -1.625 -1.84375q-0.578125 -1.1875 -0.578125 -2.75q0 -1.59375 0.578125 -2.78125q0.578125 -1.1875 1.625 -1.84375q1.046875 -0.65625 2.421875 -0.65625q0.75 0 1.40625 0.203125q0.65625 0.1875 1.1875 0.546875q0.546875 0.359375 0.9375 0.890625q0.390625 0.515625 0.59375 1.171875l-1.5625 0.453125q-0.109375 -0.390625 -0.34375 -0.71875q-0.234375 -0.328125 -0.5625 -0.5625q-0.3125 -0.25 -0.734375 -0.375q-0.421875 -0.140625 -0.921875 -0.140625q-1.015625 0 -1.671875 0.53125q-0.65625 0.53125 -0.984375 1.40625q-0.3125 0.859375 -0.3125 1.875q0 1.0 0.3125 1.859375q0.328125 0.859375 0.984375 1.390625q0.65625 0.53125 1.671875 0.53125q0.515625 0 0.9375 -0.125q0.4375 -0.140625 0.765625 -0.390625q0.328125 -0.25 0.5625 -0.59375q0.234375 -0.359375 0.34375 -0.765625l1.5625 0.453125q-0.203125 0.671875 -0.609375 1.21875q-0.390625 0.53125 -0.9375 0.90625q-0.546875 0.375 -1.21875 0.5625q-0.65625 0.203125 -1.40625 0.203125zm6.5174866 -0.21875l0 -10.1875l1.640625 0l0 10.1875l-1.640625 0zm0.828125 -11.84375q-0.46875 0 -0.8125 -0.3125q-0.328125 -0.328125 -0.328125 -0.78125q0 -0.453125 0.328125 -0.765625q0.34375 -0.3125 0.8125 -0.3125q0.46875 0 0.796875 0.3125q0.34375 0.3125 0.34375 0.765625q0 0.453125 -0.34375 0.78125q-0.328125 0.3125 -0.796875 0.3125zm6.5495605 12.078125q-0.96875 0 -1.765625 -0.359375q-0.78125 -0.359375 -1.25 -1.0625q-0.46875 -0.703125 -0.46875 -1.703125q0 -0.875 0.34375 -1.421875q0.359375 -0.546875 0.9375 -0.859375q0.578125 -0.328125 1.28125 -0.46875q0.703125 -0.15625 1.40625 -0.25q0.90625 -0.125 1.484375 -0.1875q0.578125 -0.0625 0.84375 -0.21875q0.28125 -0.15625 0.28125 -0.53125l0 -0.046875q0 -0.640625 -0.234375 -1.078125q-0.234375 -0.453125 -0.71875 -0.6875q-0.46875 -0.234375 -1.171875 -0.234375q-0.734375 0 -1.25 0.234375q-0.515625 0.21875 -0.84375 0.5625q-0.328125 0.34375 -0.484375 0.703125l-1.578125 -0.515625q0.390625 -0.9375 1.046875 -1.453125q0.671875 -0.53125 1.46875 -0.75q0.8125 -0.21875 1.59375 -0.21875q0.515625 0 1.15625 0.125q0.65625 0.125 1.265625 0.484375q0.609375 0.359375 1.0 1.078125q0.390625 0.71875 0.390625 1.90625l0 6.71875l-1.609375 0l0 -1.390625l-0.109375 0q-0.171875 0.359375 -0.5625 0.75q-0.375 0.375 -0.984375 0.625q-0.609375 0.25 -1.46875 0.25zm0.28125 -1.453125q0.90625 0 1.53125 -0.34375q0.625 -0.359375 0.953125 -0.921875q0.328125 -0.578125 0.328125 -1.203125l0 -1.40625q-0.09375 0.125 -0.4375 0.21875q-0.328125 0.09375 -0.765625 0.171875q-0.4375 0.0625 -0.84375 0.125q-0.390625 0.046875 -0.640625 0.0625q-0.578125 0.078125 -1.09375 0.265625q-0.515625 0.171875 -0.828125 0.515625q-0.3125 0.34375 -0.3125 0.921875q0 0.53125 0.265625 0.890625q0.28125 0.34375 0.75 0.53125q0.484375 0.171875 1.09375 0.171875z" fill-rule="nonzero"/><path fill="#000000" fill-opacity="0.0" d="m68.85431 93.7082l497.85828 0l0 42.01574l-497.85828 0z" fill-rule="evenodd"/><path fill="#000000" d="m79.494934 120.6282l0 -13.578125l4.640625 0q1.59375 0 2.609375 0.578125q1.03125 0.578125 1.515625 1.5625q0.5 0.96875 0.5 2.1875q0 1.203125 -0.5 2.1875q-0.484375 0.984375 -1.515625 1.578125q-1.015625 0.578125 -2.59375 0.578125l-3.296875 0l0 -1.53125l3.21875 0q1.0625 0 1.71875 -0.359375q0.65625 -0.375 0.953125 -1.015625q0.296875 -0.640625 0.296875 -1.4375q0 -0.8125 -0.296875 -1.4375q-0.296875 -0.640625 -0.953125 -1.0q-0.65625 -0.359375 -1.75 -0.359375l-2.8125 0l0 12.046875l-1.734375 0zm14.571472 0.234375q-0.96875 0 -1.765625 -0.359375q-0.78125 -0.359375 -1.25 -1.0625q-0.46875 -0.703125 -0.46875 -1.703125q0 -0.875 0.34375 -1.421875q0.359375 -0.546875 0.9375 -0.859375q0.578125 -0.328125 1.28125 -0.46875q0.703125 -0.15625 1.40625 -0.25q0.90625 -0.125 1.484375 -0.1875q0.578125 -0.0625 0.84375 -0.21875q0.28125 -0.15625 0.28125 -0.53125l0 -0.046875q0 -0.640625 -0.234375 -1.078125q-0.234375 -0.453125 -0.71875 -0.6875q-0.46875 -0.234375 -1.171875 -0.234375q-0.734375 0 -1.25 0.234375q-0.515625 0.21875 -0.84375 0.5625q-0.328125 0.34375 -0.484375 0.703125l-1.578125 -0.515625q0.390625 -0.9375 1.046875 -1.453125q0.671875 -0.53125 1.46875 -0.75q0.8125 -0.21875 1.59375 -0.21875q0.515625 0 1.15625 0.125q0.65625 0.125 1.265625 0.484375q0.609375 0.359375 1.0 1.078125q0.390625 0.71875 0.390625 1.90625l0 6.71875l-1.609375 0l0 -1.390625l-0.109375 0q-0.171875 0.359375 -0.5625 0.75q-0.375 0.375 -0.984375 0.625q-0.609375 0.25 -1.46875 0.25zm0.28125 -1.453125q0.90625 0 1.53125 -0.34375q0.625 -0.359375 0.953125 -0.921875q0.328125 -0.578125 0.328125 -1.203125l0 -1.40625q-0.09375 0.125 -0.4375 0.21875q-0.328125 0.09375 -0.765625 0.171875q-0.4375 0.0625 -0.84375 0.125q-0.390625 0.046875 -0.640625 0.0625q-0.578125 0.078125 -1.09375 0.265625q-0.515625 0.171875 -0.828125 0.515625q-0.3125 0.34375 -0.3125 0.921875q0 0.53125 0.265625 0.890625q0.28125 0.34375 0.75 0.53125q0.484375 0.171875 1.09375 0.171875zm7.3352966 1.21875l0 -10.1875l1.59375 0l0 1.5625l0.109375 0q0.28125 -0.765625 1.0 -1.234375q0.71875 -0.46875 1.640625 -0.46875q0.171875 0 0.421875 0.015625q0.25 0 0.40625 0.015625l0 1.640625q-0.078125 -0.015625 -0.375 -0.046875q-0.28125 -0.046875 -0.609375 -0.046875q-0.734375 0 -1.3125 0.3125q-0.578125 0.296875 -0.90625 0.84375q-0.328125 0.53125 -0.328125 1.21875l0 6.375l-1.640625 0zm9.882797 0.234375q-0.96875 0 -1.765625 -0.359375q-0.78125 -0.359375 -1.25 -1.0625q-0.46875 -0.703125 -0.46875 -1.703125q0 -0.875 0.34375 -1.421875q0.359375 -0.546875 0.9375 -0.859375q0.578125 -0.328125 1.28125 -0.46875q0.703125 -0.15625 1.40625 -0.25q0.90625 -0.125 1.484375 -0.1875q0.578125 -0.0625 0.84375 -0.21875q0.28125 -0.15625 0.28125 -0.53125l0 -0.046875q0 -0.640625 -0.234375 -1.078125q-0.234375 -0.453125 -0.71875 -0.6875q-0.46875 -0.234375 -1.171875 -0.234375q-0.734375 0 -1.25 0.234375q-0.515625 0.21875 -0.84375 0.5625q-0.328125 0.34375 -0.484375 0.703125l-1.578125 -0.515625q0.390625 -0.9375 1.046875 -1.453125q0.671875 -0.53125 1.46875 -0.75q0.8125 -0.21875 1.59375 -0.21875q0.515625 0 1.15625 0.125q0.65625 0.125 1.265625 0.484375q0.609375 0.359375 1.0 1.078125q0.390625 0.71875 0.390625 1.90625l0 6.71875l-1.609375 0l0 -1.390625l-0.109375 0q-0.171875 0.359375 -0.5625 0.75q-0.375 0.375 -0.984375 0.625q-0.609375 0.25 -1.46875 0.25zm0.28125 -1.453125q0.90625 0 1.53125 -0.34375q0.625 -0.359375 0.953125 -0.921875q0.328125 -0.578125 0.328125 -1.203125l0 -1.40625q-0.09375 0.125 -0.4375 0.21875q-0.328125 0.09375 -0.765625 0.171875q-0.4375 0.0625 -0.84375 0.125q-0.390625 0.046875 -0.640625 0.0625q-0.578125 0.078125 -1.09375 0.265625q-0.515625 0.171875 -0.828125 0.515625q-0.3125 0.34375 -0.3125 0.921875q0 0.53125 0.265625 0.890625q0.28125 0.34375 0.75 0.53125q0.484375 0.171875 1.09375 0.171875zm8.975922 -12.359375l0 13.578125l-1.640625 0l0 -13.578125l1.640625 0zm4.1276855 8.359375q-0.515625 0 -0.875 -0.359375q-0.359375 -0.359375 -0.359375 -0.875q0 -0.515625 0.359375 -0.875q0.359375 -0.359375 0.875 -0.359375q0.515625 0 0.875 0.359375q0.359375 0.359375 0.359375 0.875q0 0.515625 -0.359375 0.875q-0.359375 0.359375 -0.875 0.359375zm5.7652283 -8.359375l0 13.578125l-1.640625 0l0 -13.578125l1.640625 0zm7.1589355 13.796875q-1.46875 0 -2.546875 -0.65625q-1.0625 -0.65625 -1.640625 -1.828125q-0.578125 -1.171875 -0.578125 -2.75q0 -1.5625 0.5625 -2.75q0.5625 -1.203125 1.59375 -1.875q1.03125 -0.671875 2.421875 -0.671875q0.8125 0 1.59375 0.265625q0.796875 0.265625 1.4375 0.875q0.640625 0.59375 1.015625 1.578125q0.390625 0.96875 0.390625 2.375l0 0.6875l-7.90625 0l0 -1.390625l7.015625 0l-0.765625 0.515625q0 -1.0 -0.3125 -1.78125q-0.3125 -0.78125 -0.9375 -1.21875q-0.609375 -0.453125 -1.53125 -0.453125q-0.921875 0 -1.578125 0.453125q-0.65625 0.453125 -1.0 1.1875q-0.34375 0.71875 -0.34375 1.546875l0 0.921875q0 1.125 0.390625 1.921875q0.390625 0.78125 1.09375 1.1875q0.703125 0.40625 1.640625 0.40625q0.59375 0 1.078125 -0.171875q0.5 -0.171875 0.859375 -0.515625q0.359375 -0.359375 0.546875 -0.890625l1.578125 0.4375q-0.234375 0.765625 -0.796875 1.359375q-0.5625 0.578125 -1.40625 0.90625q-0.828125 0.328125 -1.875 0.328125zm8.2361145 -13.796875l0 13.578125l-1.640625 0l0 -13.578125l1.640625 0zm2.8776855 13.578125l0 -10.1875l1.640625 0l0 10.1875l-1.640625 0zm0.828125 -11.84375q-0.46875 0 -0.8125 -0.3125q-0.328125 -0.328125 -0.328125 -0.78125q0 -0.453125 0.328125 -0.765625q0.34375 -0.3125 0.8125 -0.3125q0.46875 0 0.796875 0.3125q0.34375 0.3125 0.34375 0.765625q0 0.453125 -0.34375 0.78125q-0.328125 0.3125 -0.796875 0.3125zm7.1589355 12.0625q-1.046875 0 -1.875 -0.296875q-0.8125 -0.3125 -1.34375 -0.90625q-0.515625 -0.609375 -0.703125 -1.484375l1.5625 -0.375q0.21875 0.84375 0.8125 1.234375q0.609375 0.390625 1.515625 0.390625q1.078125 0 1.703125 -0.453125q0.640625 -0.453125 0.640625 -1.09375q0 -0.515625 -0.375 -0.859375q-0.359375 -0.359375 -1.125 -0.53125l-1.6875 -0.40625q-1.390625 -0.328125 -2.0625 -1.015625q-0.671875 -0.6875 -0.671875 -1.765625q0 -0.875 0.484375 -1.546875q0.5 -0.671875 1.34375 -1.046875q0.859375 -0.375 1.9375 -0.375q1.046875 0 1.78125 0.3125q0.734375 0.3125 1.1875 0.875q0.46875 0.546875 0.703125 1.265625l-1.5 0.375q-0.203125 -0.546875 -0.6875 -0.984375q-0.484375 -0.453125 -1.46875 -0.453125q-0.921875 0 -1.53125 0.421875q-0.59375 0.421875 -0.59375 1.0625q0 0.5625 0.40625 0.90625q0.40625 0.34375 1.3125 0.546875l1.53125 0.359375q1.390625 0.328125 2.046875 1.015625q0.671875 0.6875 0.671875 1.734375q0 0.890625 -0.515625 1.59375q-0.5 0.703125 -1.40625 1.109375q-0.90625 0.390625 -2.09375 0.390625zm6.3786163 -0.21875l0 -10.1875l1.59375 0l0.015625 2.28125l-0.125 0q0.203125 -0.828125 0.65625 -1.359375q0.453125 -0.546875 1.046875 -0.8125q0.609375 -0.28125 1.265625 -0.28125q1.109375 0 1.796875 0.6875q0.6875 0.671875 0.890625 1.78125l-0.21875 0q0.1875 -0.765625 0.671875 -1.3125q0.484375 -0.5625 1.171875 -0.859375q0.6875 -0.296875 1.5 -0.296875q0.875 0 1.59375 0.390625q0.734375 0.375 1.171875 1.15625q0.4375 0.765625 0.4375 1.9375l0 6.875l-1.640625 0l0 -6.828125q0 -1.09375 -0.625 -1.5625q-0.609375 -0.484375 -1.4375 -0.484375q-0.6875 0 -1.1875 0.296875q-0.484375 0.28125 -0.765625 0.78125q-0.265625 0.5 -0.265625 1.140625l0 6.65625l-1.640625 0l0 -6.984375q0 -0.84375 -0.5625 -1.359375q-0.5625 -0.53125 -1.421875 -0.53125q-0.59375 0 -1.125 0.28125q-0.515625 0.28125 -0.84375 0.828125q-0.3125 0.546875 -0.3125 1.359375l0 6.40625l-1.640625 0zm20.623688 0.21875q-1.46875 0 -2.546875 -0.65625q-1.0625 -0.65625 -1.640625 -1.828125q-0.578125 -1.171875 -0.578125 -2.75q0 -1.5625 0.5625 -2.75q0.5625 -1.203125 1.59375 -1.875q1.03125 -0.671875 2.421875 -0.671875q0.8125 0 1.59375 0.265625q0.796875 0.265625 1.4375 0.875q0.640625 0.59375 1.015625 1.578125q0.390625 0.96875 0.390625 2.375l0 0.6875l-7.90625 0l0 -1.390625l7.015625 0l-0.765625 0.515625q0 -1.0 -0.3125 -1.78125q-0.3125 -0.78125 -0.9375 -1.21875q-0.609375 -0.453125 -1.53125 -0.453125q-0.921875 0 -1.578125 0.453125q-0.65625 0.453125 -1.0 1.1875q-0.34375 0.71875 -0.34375 1.546875l0 0.921875q0 1.125 0.390625 1.921875q0.390625 0.78125 1.09375 1.1875q0.703125 0.40625 1.640625 0.40625q0.59375 0 1.078125 -0.171875q0.5 -0.171875 0.859375 -0.515625q0.359375 -0.359375 0.546875 -0.890625l1.578125 0.4375q-0.234375 0.765625 -0.796875 1.359375q-0.5625 0.578125 -1.40625 0.90625q-0.828125 0.328125 -1.875 0.328125z" fill-rule="nonzero"/><path fill="#000000" fill-opacity="0.0" d="m68.85431 316.49744l497.85828 0l0 42.015747l-497.85828 0z" fill-rule="evenodd"/><path fill="#000000" d="m84.97931 343.60492q-1.734375 0 -3.09375 -0.84375q-1.359375 -0.84375 -2.140625 -2.40625q-0.78125 -1.5625 -0.78125 -3.71875q0 -2.15625 0.78125 -3.71875q0.78125 -1.5625 2.140625 -2.40625q1.359375 -0.84375 3.09375 -0.84375q1.03125 0 1.953125 0.296875q0.921875 0.296875 1.640625 0.875q0.734375 0.578125 1.21875 1.40625q0.484375 0.828125 0.671875 1.875l-1.734375 0q-0.140625 -0.703125 -0.5 -1.234375q-0.34375 -0.53125 -0.859375 -0.890625q-0.5 -0.359375 -1.109375 -0.546875q-0.609375 -0.1875 -1.28125 -0.1875q-1.21875 0 -2.203125 0.625q-0.984375 0.625 -1.5625 1.828125q-0.5625 1.1875 -0.5625 2.921875q0 1.734375 0.578125 2.9375q0.578125 1.1875 1.5625 1.8125q0.984375 0.609375 2.1875 0.609375q0.671875 0 1.28125 -0.1875q0.609375 -0.1875 1.109375 -0.546875q0.515625 -0.359375 0.859375 -0.890625q0.359375 -0.53125 0.5 -1.21875l1.734375 0q-0.171875 1.03125 -0.671875 1.859375q-0.484375 0.8125 -1.21875 1.40625q-0.71875 0.578125 -1.640625 0.890625q-0.90625 0.296875 -1.953125 0.296875zm12.080933 0.03125q-1.375 0 -2.421875 -0.65625q-1.046875 -0.65625 -1.625 -1.84375q-0.578125 -1.1875 -0.578125 -2.75q0 -1.59375 0.578125 -2.78125q0.578125 -1.1875 1.625 -1.84375q1.046875 -0.65625 2.421875 -0.65625q1.40625 0 2.453125 0.65625q1.046875 0.65625 1.625 1.84375q0.578125 1.1875 0.578125 2.78125q0 1.5625 -0.578125 2.75q-0.578125 1.1875 -1.625 1.84375q-1.046875 0.65625 -2.453125 0.65625zm0 -1.46875q1.03125 0 1.6875 -0.53125q0.671875 -0.53125 0.984375 -1.390625q0.328125 -0.859375 0.328125 -1.859375q0 -1.015625 -0.328125 -1.875q-0.3125 -0.875 -0.984375 -1.40625q-0.65625 -0.53125 -1.6875 -0.53125q-1.015625 0 -1.671875 0.53125q-0.65625 0.53125 -0.984375 1.40625q-0.3125 0.859375 -0.3125 1.875q0 1.0 0.3125 1.859375q0.328125 0.859375 0.984375 1.390625q0.65625 0.53125 1.671875 0.53125zm8.686462 -4.859375l0 6.109375l-1.640625 0l0 -10.1875l1.578125 0l0.015625 2.46875l-0.234375 0q0.46875 -1.40625 1.328125 -2.0q0.859375 -0.59375 2.015625 -0.59375q1.03125 0 1.796875 0.421875q0.78125 0.421875 1.203125 1.28125q0.4375 0.84375 0.4375 2.140625l0 6.46875l-1.640625 0l0 -6.328125q0 -1.171875 -0.609375 -1.84375q-0.609375 -0.671875 -1.6875 -0.671875q-0.71875 0 -1.3125 0.328125q-0.578125 0.3125 -0.921875 0.921875q-0.328125 0.609375 -0.328125 1.484375zm13.522491 6.328125q-1.375 0 -2.421875 -0.65625q-1.046875 -0.65625 -1.625 -1.84375q-0.578125 -1.1875 -0.578125 -2.75q0 -1.59375 0.578125 -2.78125q0.578125 -1.1875 1.625 -1.84375q1.046875 -0.65625 2.421875 -0.65625q0.75 0 1.40625 0.203125q0.65625 0.1875 1.1875 0.546875q0.546875 0.359375 0.9375 0.890625q0.390625 0.515625 0.59375 1.171875l-1.5625 0.453125q-0.109375 -0.390625 -0.34375 -0.71875q-0.234375 -0.328125 -0.5625 -0.5625q-0.3125 -0.25 -0.734375 -0.375q-0.421875 -0.140625 -0.921875 -0.140625q-1.015625 0 -1.671875 0.53125q-0.65625 0.53125 -0.984375 1.40625q-0.3125 0.859375 -0.3125 1.875q0 1.0 0.3125 1.859375q0.328125 0.859375 0.984375 1.390625q0.65625 0.53125 1.671875 0.53125q0.515625 0 0.9375 -0.125q0.4375 -0.140625 0.765625 -0.390625q0.328125 -0.25 0.5625 -0.59375q0.234375 -0.359375 0.34375 -0.765625l1.5625 0.453125q-0.203125 0.671875 -0.609375 1.21875q-0.390625 0.53125 -0.9375 0.90625q-0.546875 0.375 -1.21875 0.5625q-0.65625 0.203125 -1.40625 0.203125zm9.970612 -0.09375q-1.03125 0 -1.8125 -0.421875q-0.765625 -0.421875 -1.203125 -1.28125q-0.4375 -0.859375 -0.4375 -2.140625l0 -6.46875l1.640625 0l0 6.328125q0 1.1875 0.609375 1.859375q0.625 0.65625 1.703125 0.65625q0.71875 0 1.296875 -0.3125q0.578125 -0.328125 0.90625 -0.9375q0.34375 -0.625 0.34375 -1.484375l0 -6.109375l1.65625 0l0 10.1875l-1.59375 0l0 -2.46875l0.21875 0q-0.46875 1.4375 -1.34375 2.015625q-0.859375 0.578125 -1.984375 0.578125zm7.578476 -0.125l0 -10.1875l1.59375 0l0 1.5625l0.109375 0q0.28125 -0.765625 1.0 -1.234375q0.71875 -0.46875 1.640625 -0.46875q0.171875 0 0.421875 0.015625q0.25 0 0.40625 0.015625l0 1.640625q-0.078125 -0.015625 -0.375 -0.046875q-0.28125 -0.046875 -0.609375 -0.046875q-0.734375 0 -1.3125 0.3125q-0.578125 0.296875 -0.90625 0.84375q-0.328125 0.53125 -0.328125 1.21875l0 6.375l-1.640625 0zm7.315094 0l0 -10.1875l1.59375 0l0 1.5625l0.109375 0q0.28125 -0.765625 1.0 -1.234375q0.71875 -0.46875 1.640625 -0.46875q0.171875 0 0.421875 0.015625q0.25 0 0.40625 0.015625l0 1.640625q-0.078125 -0.015625 -0.375 -0.046875q-0.28125 -0.046875 -0.609375 -0.046875q-0.734375 0 -1.3125 0.3125q-0.578125 0.296875 -0.90625 0.84375q-0.328125 0.53125 -0.328125 1.21875l0 6.375l-1.640625 0zm10.9947815 0.21875q-1.46875 0 -2.546875 -0.65625q-1.0625 -0.65625 -1.640625 -1.828125q-0.578125 -1.171875 -0.578125 -2.75q0 -1.5625 0.5625 -2.75q0.5625 -1.203125 1.59375 -1.875q1.03125 -0.671875 2.421875 -0.671875q0.8125 0 1.59375 0.265625q0.796875 0.265625 1.4375 0.875q0.640625 0.59375 1.015625 1.578125q0.390625 0.96875 0.390625 2.375l0 0.6875l-7.90625 0l0 -1.390625l7.015625 0l-0.765625 0.515625q0 -1.0 -0.3125 -1.78125q-0.3125 -0.78125 -0.9375 -1.21875q-0.609375 -0.453125 -1.53125 -0.453125q-0.921875 0 -1.578125 0.453125q-0.65625 0.453125 -1.0 1.1875q-0.34375 0.71875 -0.34375 1.546875l0 0.921875q0 1.125 0.390625 1.921875q0.390625 0.78125 1.09375 1.1875q0.703125 0.40625 1.640625 0.40625q0.59375 0 1.078125 -0.171875q0.5 -0.171875 0.859375 -0.515625q0.359375 -0.359375 0.546875 -0.890625l1.578125 0.4375q-0.234375 0.765625 -0.796875 1.359375q-0.5625 0.578125 -1.40625 0.90625q-0.828125 0.328125 -1.875 0.328125zm-0.875 -11.734375l-1.765625 -2.671875l1.84375 0l1.265625 2.671875l-1.34375 0zm9.1111145 5.40625l0 6.109375l-1.640625 0l0 -10.1875l1.578125 0l0.015625 2.46875l-0.234375 0q0.46875 -1.40625 1.328125 -2.0q0.859375 -0.59375 2.015625 -0.59375q1.03125 0 1.796875 0.421875q0.78125 0.421875 1.203125 1.28125q0.4375 0.84375 0.4375 2.140625l0 6.46875l-1.640625 0l0 -6.328125q0 -1.171875 -0.609375 -1.84375q-0.609375 -0.671875 -1.6875 -0.671875q-0.71875 0 -1.3125 0.328125q-0.578125 0.3125 -0.921875 0.921875q-0.328125 0.609375 -0.328125 1.484375zm13.522491 6.328125q-1.375 0 -2.421875 -0.65625q-1.046875 -0.65625 -1.625 -1.84375q-0.578125 -1.1875 -0.578125 -2.75q0 -1.59375 0.578125 -2.78125q0.578125 -1.1875 1.625 -1.84375q1.046875 -0.65625 2.421875 -0.65625q0.75 0 1.40625 0.203125q0.65625 0.1875 1.1875 0.546875q0.546875 0.359375 0.9375 0.890625q0.390625 0.515625 0.59375 1.171875l-1.5625 0.453125q-0.109375 -0.390625 -0.34375 -0.71875q-0.234375 -0.328125 -0.5625 -0.5625q-0.3125 -0.25 -0.734375 -0.375q-0.421875 -0.140625 -0.921875 -0.140625q-1.015625 0 -1.671875 0.53125q-0.65625 0.53125 -0.984375 1.40625q-0.3125 0.859375 -0.3125 1.875q0 1.0 0.3125 1.859375q0.328125 0.859375 0.984375 1.390625q0.65625 0.53125 1.671875 0.53125q0.515625 0 0.9375 -0.125q0.4375 -0.140625 0.765625 -0.390625q0.328125 -0.25 0.5625 -0.59375q0.234375 -0.359375 0.34375 -0.765625l1.5625 0.453125q-0.203125 0.671875 -0.609375 1.21875q-0.390625 0.53125 -0.9375 0.90625q-0.546875 0.375 -1.21875 0.5625q-0.65625 0.203125 -1.40625 0.203125zm6.5174866 -0.21875l0 -10.1875l1.640625 0l0 10.1875l-1.640625 0zm0.828125 -11.84375q-0.46875 0 -0.8125 -0.3125q-0.328125 -0.328125 -0.328125 -0.78125q0 -0.453125 0.328125 -0.765625q0.34375 -0.3125 0.8125 -0.3125q0.46875 0 0.796875 0.3125q0.34375 0.3125 0.34375 0.765625q0 0.453125 -0.34375 0.78125q-0.328125 0.3125 -0.796875 0.3125zm6.5495605 12.078125q-0.96875 0 -1.765625 -0.359375q-0.78125 -0.359375 -1.25 -1.0625q-0.46875 -0.703125 -0.46875 -1.703125q0 -0.875 0.34375 -1.421875q0.359375 -0.546875 0.9375 -0.859375q0.578125 -0.328125 1.28125 -0.46875q0.703125 -0.15625 1.40625 -0.25q0.90625 -0.125 1.484375 -0.1875q0.578125 -0.0625 0.84375 -0.21875q0.28125 -0.15625 0.28125 -0.53125l0 -0.046875q0 -0.640625 -0.234375 -1.078125q-0.234375 -0.453125 -0.71875 -0.6875q-0.46875 -0.234375 -1.171875 -0.234375q-0.734375 0 -1.25 0.234375q-0.515625 0.21875 -0.84375 0.5625q-0.328125 0.34375 -0.484375 0.703125l-1.578125 -0.515625q0.390625 -0.9375 1.046875 -1.453125q0.671875 -0.53125 1.46875 -0.75q0.8125 -0.21875 1.59375 -0.21875q0.515625 0 1.15625 0.125q0.65625 0.125 1.265625 0.484375q0.609375 0.359375 1.0 1.078125q0.390625 0.71875 0.390625 1.90625l0 6.71875l-1.609375 0l0 -1.390625l-0.109375 0q-0.171875 0.359375 -0.5625 0.75q-0.375 0.375 -0.984375 0.625q-0.609375 0.25 -1.46875 0.25zm0.28125 -1.453125q0.90625 0 1.53125 -0.34375q0.625 -0.359375 0.953125 -0.921875q0.328125 -0.578125 0.328125 -1.203125l0 -1.40625q-0.09375 0.125 -0.4375 0.21875q-0.328125 0.09375 -0.765625 0.171875q-0.4375 0.0625 -0.84375 0.125q-0.390625 0.046875 -0.640625 0.0625q-0.578125 0.078125 -1.09375 0.265625q-0.515625 0.171875 -0.828125 0.515625q-0.3125 0.34375 -0.3125 0.921875q0 0.53125 0.265625 0.890625q0.28125 0.34375 0.75 0.53125q0.484375 0.171875 1.09375 0.171875zm21.798187 0.3125l0 -8.796875l1.53125 0l0 8.796875l-1.53125 0zm-3.625 -3.6875l0 -1.453125l8.78125 0l0 1.453125l-8.78125 0zm17.449814 4.59375l0 -13.578125l4.640625 0q1.59375 0 2.609375 0.578125q1.03125 0.578125 1.515625 1.5625q0.5 0.96875 0.5 2.1875q0 1.203125 -0.5 2.1875q-0.484375 0.984375 -1.515625 1.578125q-1.015625 0.578125 -2.59375 0.578125l-3.296875 0l0 -1.53125l3.21875 0q1.0625 0 1.71875 -0.359375q0.65625 -0.375 0.953125 -1.015625q0.296875 -0.640625 0.296875 -1.4375q0 -0.8125 -0.296875 -1.4375q-0.296875 -0.640625 -0.953125 -1.0q-0.65625 -0.359375 -1.75 -0.359375l-2.8125 0l0 12.046875l-1.734375 0zm14.571472 0.234375q-0.96875 0 -1.765625 -0.359375q-0.78125 -0.359375 -1.25 -1.0625q-0.46875 -0.703125 -0.46875 -1.703125q0 -0.875 0.34375 -1.421875q0.359375 -0.546875 0.9375 -0.859375q0.578125 -0.328125 1.28125 -0.46875q0.703125 -0.15625 1.40625 -0.25q0.90625 -0.125 1.484375 -0.1875q0.578125 -0.0625 0.84375 -0.21875q0.28125 -0.15625 0.28125 -0.53125l0 -0.046875q0 -0.640625 -0.234375 -1.078125q-0.234375 -0.453125 -0.71875 -0.6875q-0.46875 -0.234375 -1.171875 -0.234375q-0.734375 0 -1.25 0.234375q-0.515625 0.21875 -0.84375 0.5625q-0.328125 0.34375 -0.484375 0.703125l-1.578125 -0.515625q0.390625 -0.9375 1.046875 -1.453125q0.671875 -0.53125 1.46875 -0.75q0.8125 -0.21875 1.59375 -0.21875q0.515625 0 1.15625 0.125q0.65625 0.125 1.265625 0.484375q0.609375 0.359375 1.0 1.078125q0.390625 0.71875 0.390625 1.90625l0 6.71875l-1.609375 0l0 -1.390625l-0.109375 0q-0.171875 0.359375 -0.5625 0.75q-0.375 0.375 -0.984375 0.625q-0.609375 0.25 -1.46875 0.25zm0.28125 -1.453125q0.90625 0 1.53125 -0.34375q0.625 -0.359375 0.953125 -0.921875q0.328125 -0.578125 0.328125 -1.203125l0 -1.40625q-0.09375 0.125 -0.4375 0.21875q-0.328125 0.09375 -0.765625 0.171875q-0.4375 0.0625 -0.84375 0.125q-0.390625 0.046875 -0.640625 0.0625q-0.578125 0.078125 -1.09375 0.265625q-0.515625 0.171875 -0.828125 0.515625q-0.3125 0.34375 -0.3125 0.921875q0 0.53125 0.265625 0.890625q0.28125 0.34375 0.75 0.53125q0.484375 0.171875 1.09375 0.171875zm7.3352966 1.21875l0 -10.1875l1.59375 0l0 1.5625l0.109375 0q0.28125 -0.765625 1.0 -1.234375q0.71875 -0.46875 1.640625 -0.46875q0.171875 0 0.421875 0.015625q0.25 0 0.40625 0.015625l0 1.640625q-0.078125 -0.015625 -0.375 -0.046875q-0.28125 -0.046875 -0.609375 -0.046875q-0.734375 0 -1.3125 0.3125q-0.578125 0.296875 -0.90625 0.84375q-0.328125 0.53125 -0.328125 1.21875l0 6.375l-1.640625 0zm9.882782 0.234375q-0.96875 0 -1.765625 -0.359375q-0.78125 -0.359375 -1.2499847 -1.0625q-0.46875 -0.703125 -0.46875 -1.703125q0 -0.875 0.34375 -1.421875q0.359375 -0.546875 0.93748474 -0.859375q0.578125 -0.328125 1.28125 -0.46875q0.703125 -0.15625 1.40625 -0.25q0.90625 -0.125 1.484375 -0.1875q0.578125 -0.0625 0.84375 -0.21875q0.28125 -0.15625 0.28125 -0.53125l0 -0.046875q0 -0.640625 -0.234375 -1.078125q-0.234375 -0.453125 -0.71875 -0.6875q-0.46875 -0.234375 -1.171875 -0.234375q-0.734375 0 -1.25 0.234375q-0.515625 0.21875 -0.84375 0.5625q-0.328125 0.34375 -0.484375 0.703125l-1.5781097 -0.515625q0.390625 -0.9375 1.0468597 -1.453125q0.671875 -0.53125 1.46875 -0.75q0.8125 -0.21875 1.59375 -0.21875q0.515625 0 1.15625 0.125q0.65625 0.125 1.265625 0.484375q0.609375 0.359375 1.0 1.078125q0.390625 0.71875 0.390625 1.90625l0 6.71875l-1.609375 0l0 -1.390625l-0.109375 0q-0.171875 0.359375 -0.5625 0.75q-0.375 0.375 -0.984375 0.625q-0.609375 0.25 -1.46875 0.25zm0.28125 -1.453125q0.90625 0 1.53125 -0.34375q0.625 -0.359375 0.953125 -0.921875q0.328125 -0.578125 0.328125 -1.203125l0 -1.40625q-0.09375 0.125 -0.4375 0.21875q-0.328125 0.09375 -0.765625 0.171875q-0.4375 0.0625 -0.84375 0.125q-0.390625 0.046875 -0.640625 0.0625q-0.578125 0.078125 -1.09375 0.265625q-0.515625 0.171875 -0.828125 0.515625q-0.3125 0.34375 -0.3125 0.921875q0 0.53125 0.265625 0.890625q0.28125 0.34375 0.75 0.53125q0.484375 0.171875 1.09375 0.171875zm8.975922 -12.359375l0 13.578125l-1.640625 0l0 -13.578125l1.640625 0zm4.1276855 8.359375q-0.515625 0 -0.875 -0.359375q-0.359375 -0.359375 -0.359375 -0.875q0 -0.515625 0.359375 -0.875q0.359375 -0.359375 0.875 -0.359375q0.515625 0 0.875 0.359375q0.359375 0.359375 0.359375 0.875q0 0.515625 -0.359375 0.875q-0.359375 0.359375 -0.875 0.359375zm5.7652283 -8.359375l0 13.578125l-1.640625 0l0 -13.578125l1.640625 0zm7.1589355 13.796875q-1.46875 0 -2.546875 -0.65625q-1.0625 -0.65625 -1.640625 -1.828125q-0.578125 -1.171875 -0.578125 -2.75q0 -1.5625 0.5625 -2.75q0.5625 -1.203125 1.59375 -1.875q1.03125 -0.671875 2.421875 -0.671875q0.8125 0 1.59375 0.265625q0.796875 0.265625 1.4375 0.875q0.640625 0.59375 1.015625 1.578125q0.390625 0.96875 0.390625 2.375l0 0.6875l-7.90625 0l0 -1.390625l7.015625 0l-0.765625 0.515625q0 -1.0 -0.3125 -1.78125q-0.3125 -0.78125 -0.9375 -1.21875q-0.609375 -0.453125 -1.53125 -0.453125q-0.921875 0 -1.578125 0.453125q-0.65625 0.453125 -1.0 1.1875q-0.34375 0.71875 -0.34375 1.546875l0 0.921875q0 1.125 0.390625 1.921875q0.390625 0.78125 1.09375 1.1875q0.703125 0.40625 1.640625 0.40625q0.59375 0 1.078125 -0.171875q0.5 -0.171875 0.859375 -0.515625q0.359375 -0.359375 0.546875 -0.890625l1.578125 0.4375q-0.234375 0.765625 -0.796875 1.359375q-0.5625 0.578125 -1.40625 0.90625q-0.828125 0.328125 -1.875 0.328125zm8.2361145 -13.796875l0 13.578125l-1.640625 0l0 -13.578125l1.640625 0zm2.8776855 13.578125l0 -10.1875l1.640625 0l0 10.1875l-1.640625 0zm0.828125 -11.84375q-0.46875 0 -0.8125 -0.3125q-0.328125 -0.328125 -0.328125 -0.78125q0 -0.453125 0.328125 -0.765625q0.34375 -0.3125 0.8125 -0.3125q0.46875 0 0.796875 0.3125q0.34375 0.3125 0.34375 0.765625q0 0.453125 -0.34375 0.78125q-0.328125 0.3125 -0.796875 0.3125zm7.1589355 12.0625q-1.046875 0 -1.875 -0.296875q-0.8125 -0.3125 -1.34375 -0.90625q-0.515625 -0.609375 -0.703125 -1.484375l1.5625 -0.375q0.21875 0.84375 0.8125 1.234375q0.609375 0.390625 1.515625 0.390625q1.078125 0 1.703125 -0.453125q0.640625 -0.453125 0.640625 -1.09375q0 -0.515625 -0.375 -0.859375q-0.359375 -0.359375 -1.125 -0.53125l-1.6875 -0.40625q-1.390625 -0.328125 -2.0625 -1.015625q-0.671875 -0.6875 -0.671875 -1.765625q0 -0.875 0.484375 -1.546875q0.5 -0.671875 1.34375 -1.046875q0.859375 -0.375 1.9375 -0.375q1.046875 0 1.78125 0.3125q0.734375 0.3125 1.1875 0.875q0.46875 0.546875 0.703125 1.265625l-1.5 0.375q-0.203125 -0.546875 -0.6875 -0.984375q-0.484375 -0.453125 -1.46875 -0.453125q-0.921875 0 -1.53125 0.421875q-0.59375 0.421875 -0.59375 1.0625q0 0.5625 0.40625 0.90625q0.40625 0.34375 1.3125 0.546875l1.53125 0.359375q1.390625 0.328125 2.046875 1.015625q0.671875 0.6875 0.671875 1.734375q0 0.890625 -0.515625 1.59375q-0.5 0.703125 -1.40625 1.109375q-0.90625 0.390625 -2.09375 0.390625zm6.3786316 -0.21875l0 -10.1875l1.59375 0l0.015625 2.28125l-0.125 0q0.203125 -0.828125 0.65625 -1.359375q0.453125 -0.546875 1.046875 -0.8125q0.609375 -0.28125 1.265625 -0.28125q1.109375 0 1.796875 0.6875q0.6875 0.671875 0.890625 1.78125l-0.21875 0q0.1875 -0.765625 0.671875 -1.3125q0.484375 -0.5625 1.171875 -0.859375q0.6875 -0.296875 1.5 -0.296875q0.875 0 1.59375 0.390625q0.734375 0.375 1.171875 1.15625q0.4375 0.765625 0.4375 1.9375l0 6.875l-1.640625 0l0 -6.828125q0 -1.09375 -0.625 -1.5625q-0.609375 -0.484375 -1.4375 -0.484375q-0.6875 0 -1.1875 0.296875q-0.484375 0.28125 -0.765625 0.78125q-0.265625 0.5 -0.265625 1.140625l0 6.65625l-1.640625 0l0 -6.984375q0 -0.84375 -0.5625 -1.359375q-0.5625 -0.53125 -1.421875 -0.53125q-0.59375 0 -1.125 0.28125q-0.515625 0.28125 -0.84375 0.828125q-0.3125 0.546875 -0.3125 1.359375l0 6.40625l-1.640625 0zm20.623688 0.21875q-1.46875 0 -2.546875 -0.65625q-1.0625 -0.65625 -1.640625 -1.828125q-0.578125 -1.171875 -0.578125 -2.75q0 -1.5625 0.5625 -2.75q0.5625 -1.203125 1.59375 -1.875q1.03125 -0.671875 2.421875 -0.671875q0.8125 0 1.59375 0.265625q0.796875 0.265625 1.4375 0.875q0.640625 0.59375 1.015625 1.578125q0.390625 0.96875 0.390625 2.375l0 0.6875l-7.90625 0l0 -1.390625l7.015625 0l-0.765625 0.515625q0 -1.0 -0.3125 -1.78125q-0.3125 -0.78125 -0.9375 -1.21875q-0.609375 -0.453125 -1.53125 -0.453125q-0.921875 0 -1.578125 0.453125q-0.65625 0.453125 -1.0 1.1875q-0.34375 0.71875 -0.34375 1.546875l0 0.921875q0 1.125 0.390625 1.921875q0.390625 0.78125 1.09375 1.1875q0.703125 0.40625 1.640625 0.40625q0.59375 0 1.078125 -0.171875q0.5 -0.171875 0.859375 -0.515625q0.359375 -0.359375 0.546875 -0.890625l1.578125 0.4375q-0.234375 0.765625 -0.796875 1.359375q-0.5625 0.578125 -1.40625 0.90625q-0.828125 0.328125 -1.875 0.328125z" fill-rule="nonzero"/><path fill="#f6b26b" d="m538.1999 72.112976l0 -28.522308l74.246704 0l18.561707 14.261154l-18.561707 14.261154z" fill-rule="evenodd"/><path stroke="#ffffff" stroke-width="1.0" stroke-linejoin="round" stroke-linecap="butt" d="m538.1999 72.112976l0 -28.522308l74.246704 0l18.561707 14.261154l-18.561707 14.261154z" fill-rule="evenodd"/><path fill="#6d9eeb" d="m472.2934 72.112976l0 -28.522308l74.246704 0l18.561707 14.261154l-18.561707 14.261154z" fill-rule="evenodd"/><path stroke="#ffffff" stroke-width="1.0" stroke-linejoin="round" stroke-linecap="butt" d="m472.2934 72.112976l0 -28.522308l74.246704 0l18.561707 14.261154l-18.561707 14.261154z" fill-rule="evenodd"/><path fill="#c27ba0" d="m406.3869 72.112976l0 -28.522308l74.246704 0l18.561676 14.261154l-18.561676 14.261154z" fill-rule="evenodd"/><path stroke="#ffffff" stroke-width="1.0" stroke-linejoin="round" stroke-linecap="butt" d="m406.3869 72.112976l0 -28.522308l74.246704 0l18.561676 14.261154l-18.561676 14.261154z" fill-rule="evenodd"/><path fill="#f6b26b" d="m340.4804 72.112976l0 -28.522308l74.246704 0l18.561676 14.261154l-18.561676 14.261154z" fill-rule="evenodd"/><path stroke="#ffffff" stroke-width="1.0" stroke-linejoin="round" stroke-linecap="butt" d="m340.4804 72.112976l0 -28.522308l74.246704 0l18.561676 14.261154l-18.561676 14.261154z" fill-rule="evenodd"/><path fill="#6d9eeb" d="m274.5739 72.112976l0 -28.522308l74.246704 0l18.561676 14.261154l-18.561676 14.261154z" fill-rule="evenodd"/><path stroke="#ffffff" stroke-width="1.0" stroke-linejoin="round" stroke-linecap="butt" d="m274.5739 72.112976l0 -28.522308l74.246704 0l18.561676 14.261154l-18.561676 14.261154z" fill-rule="evenodd"/><path fill="#93c47d" d="m208.6674 72.112976l0 -28.522308l74.24672 0l18.561676 14.261154l-18.561676 14.261154z" fill-rule="evenodd"/><path stroke="#ffffff" stroke-width="1.0" stroke-linejoin="round" stroke-linecap="butt" d="m208.6674 72.112976l0 -28.522308l74.24672 0l18.561676 14.261154l-18.561676 14.261154z" fill-rule="evenodd"/><path fill="#c27ba0" d="m142.76091 72.112976l0 -28.522308l74.24672 0l18.561676 14.261154l-18.561676 14.261154z" fill-rule="evenodd"/><path stroke="#ffffff" stroke-width="1.0" stroke-linejoin="round" stroke-linecap="butt" d="m142.76091 72.112976l0 -28.522308l74.24672 0l18.561676 14.261154l-18.561676 14.261154z" fill-rule="evenodd"/><path fill="#f6b26b" d="m76.85441 72.112976l0 -28.522308l74.24673 0l18.561676 14.261154l-18.561676 14.261154z" fill-rule="evenodd"/><path stroke="#ffffff" stroke-width="1.0" stroke-linejoin="round" stroke-linecap="butt" d="m76.85441 72.112976l0 -28.522308l74.24673 0l18.561676 14.261154l-18.561676 14.261154z" fill-rule="evenodd"/><path fill="#f6b26b" d="m208.6674 163.86145l0 -28.522308l74.24672 0l18.561676 14.261154l-18.561676 14.261154z" fill-rule="evenodd"/><path stroke="#ffffff" stroke-width="1.0" stroke-linejoin="round" stroke-linecap="butt" d="m208.6674 163.86145l0 -28.522308l74.24672 0l18.561676 14.261154l-18.561676 14.261154z" fill-rule="evenodd"/><path fill="#f6b26b" d="m142.76091 163.86145l0 -28.522308l74.24672 0l18.561676 14.261154l-18.561676 14.261154z" fill-rule="evenodd"/><path stroke="#ffffff" stroke-width="1.0" stroke-linejoin="round" stroke-linecap="butt" d="m142.76091 163.86145l0 -28.522308l74.24672 0l18.561676 14.261154l-18.561676 14.261154z" fill-rule="evenodd"/><path fill="#f6b26b" d="m76.85441 163.86145l0 -28.522308l74.24673 0l18.561676 14.261154l-18.561676 14.261154z" fill-rule="evenodd"/><path stroke="#ffffff" stroke-width="1.0" stroke-linejoin="round" stroke-linecap="butt" d="m76.85441 163.86145l0 -28.522308l74.24673 0l18.561676 14.261154l-18.561676 14.261154z" fill-rule="evenodd"/><path fill="#c27ba0" d="m142.76091 207.60991l0 -28.522308l74.24672 0l18.561676 14.261154l-18.561676 14.261154z" fill-rule="evenodd"/><path stroke="#ffffff" stroke-width="1.0" stroke-linejoin="round" stroke-linecap="butt" d="m142.76091 207.60991l0 -28.522308l74.24672 0l18.561676 14.261154l-18.561676 14.261154z" fill-rule="evenodd"/><path fill="#c27ba0" d="m76.85441 207.60991l0 -28.522308l74.24673 0l18.561676 14.261154l-18.561676 14.261154z" fill-rule="evenodd"/><path stroke="#ffffff" stroke-width="1.0" stroke-linejoin="round" stroke-linecap="butt" d="m76.85441 207.60991l0 -28.522308l74.24673 0l18.561676 14.261154l-18.561676 14.261154z" fill-rule="evenodd"/><path fill="#6d9eeb" d="m142.76091 295.10684l0 -28.522308l74.24672 0l18.561676 14.261169l-18.561676 14.261139z" fill-rule="evenodd"/><path stroke="#ffffff" stroke-width="1.0" stroke-linejoin="round" stroke-linecap="butt" d="m142.76091 295.10684l0 -28.522308l74.24672 0l18.561676 14.261169l-18.561676 14.261139z" fill-rule="evenodd"/><path fill="#6d9eeb" d="m76.85441 295.10684l0 -28.522308l74.24673 0l18.561676 14.261169l-18.561676 14.261139z" fill-rule="evenodd"/><path stroke="#ffffff" stroke-width="1.0" stroke-linejoin="round" stroke-linecap="butt" d="m76.85441 295.10684l0 -28.522308l74.24673 0l18.561676 14.261169l-18.561676 14.261139z" fill-rule="evenodd"/><path fill="#93c47d" d="m76.85441 251.35838l0 -28.522308l74.24673 0l18.561676 14.261154l-18.561676 14.261154z" fill-rule="evenodd"/><path stroke="#ffffff" stroke-width="1.0" stroke-linejoin="round" stroke-linecap="butt" d="m76.85441 251.35838l0 -28.522308l74.24673 0l18.561676 14.261154l-18.561676 14.261154z" fill-rule="evenodd"/><path fill="#f6b26b" d="m274.5739 386.85532l0 -28.522308l74.246704 0l18.561676 14.261169l-18.561676 14.261139z" fill-rule="evenodd"/><path stroke="#ffffff" stroke-width="1.0" stroke-linejoin="round" stroke-linecap="butt" d="m274.5739 386.85532l0 -28.522308l74.246704 0l18.561676 14.261169l-18.561676 14.261139z" fill-rule="evenodd"/><path fill="#f6b26b" d="m208.6674 386.85532l0 -28.522308l74.24672 0l18.561676 14.261169l-18.561676 14.261139z" fill-rule="evenodd"/><path stroke="#ffffff" stroke-width="1.0" stroke-linejoin="round" stroke-linecap="butt" d="m208.6674 386.85532l0 -28.522308l74.24672 0l18.561676 14.261169l-18.561676 14.261139z" fill-rule="evenodd"/><path fill="#93c47d" d="m142.76091 386.85532l0 -28.522308l74.24672 0l18.561676 14.261169l-18.561676 14.261139z" fill-rule="evenodd"/><path stroke="#ffffff" stroke-width="1.0" stroke-linejoin="round" stroke-linecap="butt" d="m142.76091 386.85532l0 -28.522308l74.24672 0l18.561676 14.261169l-18.561676 14.261139z" fill-rule="evenodd"/><path fill="#f6b26b" d="m76.85441 386.85532l0 -28.522308l74.24673 0l18.561676 14.261169l-18.561676 14.261139z" fill-rule="evenodd"/><path stroke="#ffffff" stroke-width="1.0" stroke-linejoin="round" stroke-linecap="butt" d="m76.85441 386.85532l0 -28.522308l74.24673 0l18.561676 14.261169l-18.561676 14.261139z" fill-rule="evenodd"/><path fill="#6d9eeb" d="m274.5739 430.6038l0 -28.522308l74.246704 0l18.561676 14.261169l-18.561676 14.261139z" fill-rule="evenodd"/><path stroke="#ffffff" stroke-width="1.0" stroke-linejoin="round" stroke-linecap="butt" d="m274.5739 430.6038l0 -28.522308l74.246704 0l18.561676 14.261169l-18.561676 14.261139z" fill-rule="evenodd"/><path fill="#c27ba0" d="m208.6674 430.6038l0 -28.522308l74.24672 0l18.561676 14.261169l-18.561676 14.261139z" fill-rule="evenodd"/><path stroke="#ffffff" stroke-width="1.0" stroke-linejoin="round" stroke-linecap="butt" d="m208.6674 430.6038l0 -28.522308l74.24672 0l18.561676 14.261169l-18.561676 14.261139z" fill-rule="evenodd"/><path fill="#6d9eeb" d="m142.76091 430.6038l0 -28.522308l74.24672 0l18.561676 14.261169l-18.561676 14.261139z" fill-rule="evenodd"/><path stroke="#ffffff" stroke-width="1.0" stroke-linejoin="round" stroke-linecap="butt" d="m142.76091 430.6038l0 -28.522308l74.24672 0l18.561676 14.261169l-18.561676 14.261139z" fill-rule="evenodd"/><path fill="#c27ba0" d="m76.85441 430.6038l0 -28.522308l74.24673 0l18.561676 14.261169l-18.561676 14.261139z" fill-rule="evenodd"/><path stroke="#ffffff" stroke-width="1.0" stroke-linejoin="round" stroke-linecap="butt" d="m76.85441 430.6038l0 -28.522308l74.24673 0l18.561676 14.261169l-18.561676 14.261139z" fill-rule="evenodd"/><path fill="#d9d9d9" d="m11.696828 38.182533l39.338585 0l0 39.338585l-39.338585 0z" fill-rule="evenodd"/><path stroke="#000000" stroke-width="2.0" stroke-linejoin="round" stroke-linecap="butt" d="m11.696828 38.182533l39.338585 0l0 39.338585l-39.338585 0z" fill-rule="evenodd"/><path fill="#d9d9d9" d="m11.696828 127.66878l39.338585 0l0 177.85826l-39.338585 0z" fill-rule="evenodd"/><path stroke="#000000" stroke-width="2.0" stroke-linejoin="round" stroke-linecap="butt" d="m11.696828 127.66878l39.338585 0l0 177.85826l-39.338585 0z" fill-rule="evenodd"/><path fill="#d9d9d9" d="m11.696828 353.236l39.338585 0l0 83.14963l-39.338585 0z" fill-rule="evenodd"/><path stroke="#000000" stroke-width="2.0" stroke-linejoin="round" stroke-linecap="butt" d="m11.696828 353.236l39.338585 0l0 83.14963l-39.338585 0z" fill-rule="evenodd"/><path fill="#000000" fill-opacity="0.0" d="m1.6574583 45.93975l10.047244 0" fill-rule="evenodd"/><path stroke="#000000" stroke-width="2.0" stroke-linejoin="round" stroke-linecap="butt" d="m1.6574583 45.93975l10.047244 0" fill-rule="evenodd"/><path fill="#000000" fill-opacity="0.0" d="m1.6574583 53.93975l10.047244 0" fill-rule="evenodd"/><path stroke="#000000" stroke-width="2.0" stroke-linejoin="round" stroke-linecap="butt" d="m1.6574583 53.93975l10.047244 0" fill-rule="evenodd"/><path fill="#000000" fill-opacity="0.0" d="m1.6574583 61.93975l10.047244 0" fill-rule="evenodd"/><path stroke="#000000" stroke-width="2.0" stroke-linejoin="round" stroke-linecap="butt" d="m1.6574583 61.93975l10.047244 0" fill-rule="evenodd"/><path fill="#000000" fill-opacity="0.0" d="m1.6574583 69.93975l10.047244 0" fill-rule="evenodd"/><path stroke="#000000" stroke-width="2.0" stroke-linejoin="round" stroke-linecap="butt" d="m1.6574583 69.93975l10.047244 0" fill-rule="evenodd"/><path fill="#000000" fill-opacity="0.0" d="m51.080944 45.93975l10.047245 0" fill-rule="evenodd"/><path stroke="#000000" stroke-width="2.0" stroke-linejoin="round" stroke-linecap="butt" d="m51.080944 45.93975l10.047245 0" fill-rule="evenodd"/><path fill="#000000" fill-opacity="0.0" d="m51.080944 53.93975l10.047245 0" fill-rule="evenodd"/><path stroke="#000000" stroke-width="2.0" stroke-linejoin="round" stroke-linecap="butt" d="m51.080944 53.93975l10.047245 0" fill-rule="evenodd"/><path fill="#000000" fill-opacity="0.0" d="m51.080944 61.93975l10.047245 0" fill-rule="evenodd"/><path stroke="#000000" stroke-width="2.0" stroke-linejoin="round" stroke-linecap="butt" d="m51.080944 61.93975l10.047245 0" fill-rule="evenodd"/><path fill="#000000" fill-opacity="0.0" d="m51.080944 69.93975l10.047245 0" fill-rule="evenodd"/><path stroke="#000000" stroke-width="2.0" stroke-linejoin="round" stroke-linecap="butt" d="m51.080944 69.93975l10.047245 0" fill-rule="evenodd"/><path fill="#000000" fill-opacity="0.0" d="m44.10457 77.272l0 10.047241" fill-rule="evenodd"/><path stroke="#000000" stroke-width="2.0" stroke-linejoin="round" stroke-linecap="butt" d="m44.10457 77.272l0 10.047241" fill-rule="evenodd"/><path fill="#000000" fill-opacity="0.0" d="m36.10457 77.272l0 10.047241" fill-rule="evenodd"/><path stroke="#000000" stroke-width="2.0" stroke-linejoin="round" stroke-linecap="butt" d="m36.10457 77.272l0 10.047241" fill-rule="evenodd"/><path fill="#000000" fill-opacity="0.0" d="m28.104568 77.272l0 10.047241" fill-rule="evenodd"/><path stroke="#000000" stroke-width="2.0" stroke-linejoin="round" stroke-linecap="butt" d="m28.104568 77.272l0 10.047241" fill-rule="evenodd"/><path fill="#000000" fill-opacity="0.0" d="m20.104568 77.272l0 10.047241" fill-rule="evenodd"/><path stroke="#000000" stroke-width="2.0" stroke-linejoin="round" stroke-linecap="butt" d="m20.104568 77.272l0 10.047241" fill-rule="evenodd"/><path fill="#000000" fill-opacity="0.0" d="m44.10457 28.560257l0 10.047245" fill-rule="evenodd"/><path stroke="#000000" stroke-width="2.0" stroke-linejoin="round" stroke-linecap="butt" d="m44.10457 28.560257l0 10.047245" fill-rule="evenodd"/><path fill="#000000" fill-opacity="0.0" d="m36.10457 28.560257l0 10.047245" fill-rule="evenodd"/><path stroke="#000000" stroke-width="2.0" stroke-linejoin="round" stroke-linecap="butt" d="m36.10457 28.560257l0 10.047245" fill-rule="evenodd"/><path fill="#000000" fill-opacity="0.0" d="m28.104568 28.560257l0 10.047245" fill-rule="evenodd"/><path stroke="#000000" stroke-width="2.0" stroke-linejoin="round" stroke-linecap="butt" d="m28.104568 28.560257l0 10.047245" fill-rule="evenodd"/><path fill="#000000" fill-opacity="0.0" d="m20.104568 28.560257l0 10.047245" fill-rule="evenodd"/><path stroke="#000000" stroke-width="2.0" stroke-linejoin="round" stroke-linecap="butt" d="m20.104568 28.560257l0 10.047245" fill-rule="evenodd"/><path fill="#000000" fill-opacity="0.0" d="m51.080944 135.71912l10.047245 0" fill-rule="evenodd"/><path stroke="#000000" stroke-width="2.0" stroke-linejoin="round" stroke-linecap="butt" d="m51.080944 135.71912l10.047245 0" fill-rule="evenodd"/><path fill="#000000" fill-opacity="0.0" d="m51.080944 146.56323l10.047245 0" fill-rule="evenodd"/><path stroke="#000000" stroke-width="2.0" stroke-linejoin="round" stroke-linecap="butt" d="m51.080944 146.56323l10.047245 0" fill-rule="evenodd"/><path fill="#000000" fill-opacity="0.0" d="m51.080944 157.40736l10.047245 0" fill-rule="evenodd"/><path stroke="#000000" stroke-width="2.0" stroke-linejoin="round" stroke-linecap="butt" d="m51.080944 157.40736l10.047245 0" fill-rule="evenodd"/><path fill="#000000" fill-opacity="0.0" d="m51.080944 168.2515l10.047245 0" fill-rule="evenodd"/><path stroke="#000000" stroke-width="2.0" stroke-linejoin="round" stroke-linecap="butt" d="m51.080944 168.2515l10.047245 0" fill-rule="evenodd"/><path fill="#000000" fill-opacity="0.0" d="m51.080944 179.09563l10.047245 0" fill-rule="evenodd"/><path stroke="#000000" stroke-width="2.0" stroke-linejoin="round" stroke-linecap="butt" d="m51.080944 179.09563l10.047245 0" fill-rule="evenodd"/><path fill="#000000" fill-opacity="0.0" d="m51.080944 189.93974l10.047245 0" fill-rule="evenodd"/><path stroke="#000000" stroke-width="2.0" stroke-linejoin="round" stroke-linecap="butt" d="m51.080944 189.93974l10.047245 0" fill-rule="evenodd"/><path fill="#000000" fill-opacity="0.0" d="m51.080944 200.78387l10.047245 0" fill-rule="evenodd"/><path stroke="#000000" stroke-width="2.0" stroke-linejoin="round" stroke-linecap="butt" d="m51.080944 200.78387l10.047245 0" fill-rule="evenodd"/><path fill="#000000" fill-opacity="0.0" d="m51.080944 211.628l10.047245 0" fill-rule="evenodd"/><path stroke="#000000" stroke-width="2.0" stroke-linejoin="round" stroke-linecap="butt" d="m51.080944 211.628l10.047245 0" fill-rule="evenodd"/><path fill="#000000" fill-opacity="0.0" d="m51.080944 222.47214l10.047245 0" fill-rule="evenodd"/><path stroke="#000000" stroke-width="2.0" stroke-linejoin="round" stroke-linecap="butt" d="m51.080944 222.47214l10.047245 0" fill-rule="evenodd"/><path fill="#000000" fill-opacity="0.0" d="m51.080944 233.31627l10.047245 0" fill-rule="evenodd"/><path stroke="#000000" stroke-width="2.0" stroke-linejoin="round" stroke-linecap="butt" d="m51.080944 233.31627l10.047245 0" fill-rule="evenodd"/><path fill="#000000" fill-opacity="0.0" d="m51.080944 244.16039l10.047245 0" fill-rule="evenodd"/><path stroke="#000000" stroke-width="2.0" stroke-linejoin="round" stroke-linecap="butt" d="m51.080944 244.16039l10.047245 0" fill-rule="evenodd"/><path fill="#000000" fill-opacity="0.0" d="m51.080944 265.84863l10.047245 0" fill-rule="evenodd"/><path stroke="#000000" stroke-width="2.0" stroke-linejoin="round" stroke-linecap="butt" d="m51.080944 265.84863l10.047245 0" fill-rule="evenodd"/><path fill="#000000" fill-opacity="0.0" d="m51.080944 276.69278l10.047245 0" fill-rule="evenodd"/><path stroke="#000000" stroke-width="2.0" stroke-linejoin="round" stroke-linecap="butt" d="m51.080944 276.69278l10.047245 0" fill-rule="evenodd"/><path fill="#000000" fill-opacity="0.0" d="m51.080944 287.5369l10.047245 0" fill-rule="evenodd"/><path stroke="#000000" stroke-width="2.0" stroke-linejoin="round" stroke-linecap="butt" d="m51.080944 287.5369l10.047245 0" fill-rule="evenodd"/><path fill="#000000" fill-opacity="0.0" d="m51.080944 298.38104l10.047245 0" fill-rule="evenodd"/><path stroke="#000000" stroke-width="2.0" stroke-linejoin="round" stroke-linecap="butt" d="m51.080944 298.38104l10.047245 0" fill-rule="evenodd"/><path fill="#000000" fill-opacity="0.0" d="m51.080944 255.00452l10.047245 0" fill-rule="evenodd"/><path stroke="#000000" stroke-width="2.0" stroke-linejoin="round" stroke-linecap="butt" d="m51.080944 255.00452l10.047245 0" fill-rule="evenodd"/><path fill="#000000" fill-opacity="0.0" d="m2.0133302 135.71912l10.047244 0" fill-rule="evenodd"/><path stroke="#000000" stroke-width="2.0" stroke-linejoin="round" stroke-linecap="butt" d="m2.0133302 135.71912l10.047244 0" fill-rule="evenodd"/><path fill="#000000" fill-opacity="0.0" d="m2.0133302 146.56323l10.047244 0" fill-rule="evenodd"/><path stroke="#000000" stroke-width="2.0" stroke-linejoin="round" stroke-linecap="butt" d="m2.0133302 146.56323l10.047244 0" fill-rule="evenodd"/><path fill="#000000" fill-opacity="0.0" d="m2.0133302 157.40736l10.047244 0" fill-rule="evenodd"/><path stroke="#000000" stroke-width="2.0" stroke-linejoin="round" stroke-linecap="butt" d="m2.0133302 157.40736l10.047244 0" fill-rule="evenodd"/><path fill="#000000" fill-opacity="0.0" d="m2.0133302 168.2515l10.047244 0" fill-rule="evenodd"/><path stroke="#000000" stroke-width="2.0" stroke-linejoin="round" stroke-linecap="butt" d="m2.0133302 168.2515l10.047244 0" fill-rule="evenodd"/><path fill="#000000" fill-opacity="0.0" d="m2.0133302 179.09563l10.047244 0" fill-rule="evenodd"/><path stroke="#000000" stroke-width="2.0" stroke-linejoin="round" stroke-linecap="butt" d="m2.0133302 179.09563l10.047244 0" fill-rule="evenodd"/><path fill="#000000" fill-opacity="0.0" d="m2.0133302 189.93974l10.047244 0" fill-rule="evenodd"/><path stroke="#000000" stroke-width="2.0" stroke-linejoin="round" stroke-linecap="butt" d="m2.0133302 189.93974l10.047244 0" fill-rule="evenodd"/><path fill="#000000" fill-opacity="0.0" d="m2.0133302 200.78387l10.047244 0" fill-rule="evenodd"/><path stroke="#000000" stroke-width="2.0" stroke-linejoin="round" stroke-linecap="butt" d="m2.0133302 200.78387l10.047244 0" fill-rule="evenodd"/><path fill="#000000" fill-opacity="0.0" d="m2.0133302 211.628l10.047244 0" fill-rule="evenodd"/><path stroke="#000000" stroke-width="2.0" stroke-linejoin="round" stroke-linecap="butt" d="m2.0133302 211.628l10.047244 0" fill-rule="evenodd"/><path fill="#000000" fill-opacity="0.0" d="m2.0133302 222.47214l10.047244 0" fill-rule="evenodd"/><path stroke="#000000" stroke-width="2.0" stroke-linejoin="round" stroke-linecap="butt" d="m2.0133302 222.47214l10.047244 0" fill-rule="evenodd"/><path fill="#000000" fill-opacity="0.0" d="m2.0133302 233.31627l10.047244 0" fill-rule="evenodd"/><path stroke="#000000" stroke-width="2.0" stroke-linejoin="round" stroke-linecap="butt" d="m2.0133302 233.31627l10.047244 0" fill-rule="evenodd"/><path fill="#000000" fill-opacity="0.0" d="m2.0133302 244.16039l10.047244 0" fill-rule="evenodd"/><path stroke="#000000" stroke-width="2.0" stroke-linejoin="round" stroke-linecap="butt" d="m2.0133302 244.16039l10.047244 0" fill-rule="evenodd"/><path fill="#000000" fill-opacity="0.0" d="m2.0133302 265.84863l10.047244 0" fill-rule="evenodd"/><path stroke="#000000" stroke-width="2.0" stroke-linejoin="round" stroke-linecap="butt" d="m2.0133302 265.84863l10.047244 0" fill-rule="evenodd"/><path fill="#000000" fill-opacity="0.0" d="m2.0133302 276.69278l10.047244 0" fill-rule="evenodd"/><path stroke="#000000" stroke-width="2.0" stroke-linejoin="round" stroke-linecap="butt" d="m2.0133302 276.69278l10.047244 0" fill-rule="evenodd"/><path fill="#000000" fill-opacity="0.0" d="m2.0133302 287.5369l10.047244 0" fill-rule="evenodd"/><path stroke="#000000" stroke-width="2.0" stroke-linejoin="round" stroke-linecap="butt" d="m2.0133302 287.5369l10.047244 0" fill-rule="evenodd"/><path fill="#000000" fill-opacity="0.0" d="m2.0133302 298.38104l10.047244 0" fill-rule="evenodd"/><path stroke="#000000" stroke-width="2.0" stroke-linejoin="round" stroke-linecap="butt" d="m2.0133302 298.38104l10.047244 0" fill-rule="evenodd"/><path fill="#000000" fill-opacity="0.0" d="m2.0133302 255.00452l10.047244 0" fill-rule="evenodd"/><path stroke="#000000" stroke-width="2.0" stroke-linejoin="round" stroke-linecap="butt" d="m2.0133302 255.00452l10.047244 0" fill-rule="evenodd"/><path fill="#000000" fill-opacity="0.0" d="m44.10457 117.272l0 10.047241" fill-rule="evenodd"/><path stroke="#000000" stroke-width="2.0" stroke-linejoin="round" stroke-linecap="butt" d="m44.10457 117.272l0 10.047241" fill-rule="evenodd"/><path fill="#000000" fill-opacity="0.0" d="m36.10457 117.272l0 10.047241" fill-rule="evenodd"/><path stroke="#000000" stroke-width="2.0" stroke-linejoin="round" stroke-linecap="butt" d="m36.10457 117.272l0 10.047241" fill-rule="evenodd"/><path fill="#000000" fill-opacity="0.0" d="m28.104568 117.272l0 10.047241" fill-rule="evenodd"/><path stroke="#000000" stroke-width="2.0" stroke-linejoin="round" stroke-linecap="butt" d="m28.104568 117.272l0 10.047241" fill-rule="evenodd"/><path fill="#000000" fill-opacity="0.0" d="m20.104568 117.272l0 10.047241" fill-rule="evenodd"/><path stroke="#000000" stroke-width="2.0" stroke-linejoin="round" stroke-linecap="butt" d="m20.104568 117.272l0 10.047241" fill-rule="evenodd"/><path fill="#000000" fill-opacity="0.0" d="m44.10457 306.06915l0 10.047241" fill-rule="evenodd"/><path stroke="#000000" stroke-width="2.0" stroke-linejoin="round" stroke-linecap="butt" d="m44.10457 306.06915l0 10.047241" fill-rule="evenodd"/><path fill="#000000" fill-opacity="0.0" d="m36.10457 306.06915l0 10.047241" fill-rule="evenodd"/><path stroke="#000000" stroke-width="2.0" stroke-linejoin="round" stroke-linecap="butt" d="m36.10457 306.06915l0 10.047241" fill-rule="evenodd"/><path fill="#000000" fill-opacity="0.0" d="m28.104568 306.06915l0 10.047241" fill-rule="evenodd"/><path stroke="#000000" stroke-width="2.0" stroke-linejoin="round" stroke-linecap="butt" d="m28.104568 306.06915l0 10.047241" fill-rule="evenodd"/><path fill="#000000" fill-opacity="0.0" d="m20.104568 306.06915l0 10.047241" fill-rule="evenodd"/><path stroke="#000000" stroke-width="2.0" stroke-linejoin="round" stroke-linecap="butt" d="m20.104568 306.06915l0 10.047241" fill-rule="evenodd"/><path fill="#000000" fill-opacity="0.0" d="m44.10457 343.22217l0 10.047241" fill-rule="evenodd"/><path stroke="#000000" stroke-width="2.0" stroke-linejoin="round" stroke-linecap="butt" d="m44.10457 343.22217l0 10.047241" fill-rule="evenodd"/><path fill="#000000" fill-opacity="0.0" d="m36.10457 343.22217l0 10.047241" fill-rule="evenodd"/><path stroke="#000000" stroke-width="2.0" stroke-linejoin="round" stroke-linecap="butt" d="m36.10457 343.22217l0 10.047241" fill-rule="evenodd"/><path fill="#000000" fill-opacity="0.0" d="m28.104568 343.22217l0 10.047241" fill-rule="evenodd"/><path stroke="#000000" stroke-width="2.0" stroke-linejoin="round" stroke-linecap="butt" d="m28.104568 343.22217l0 10.047241" fill-rule="evenodd"/><path fill="#000000" fill-opacity="0.0" d="m20.104568 343.22217l0 10.047241" fill-rule="evenodd"/><path stroke="#000000" stroke-width="2.0" stroke-linejoin="round" stroke-linecap="butt" d="m20.104568 343.22217l0 10.047241" fill-rule="evenodd"/><path fill="#000000" fill-opacity="0.0" d="m44.10457 436.73108l0 10.047241" fill-rule="evenodd"/><path stroke="#000000" stroke-width="2.0" stroke-linejoin="round" stroke-linecap="butt" d="m44.10457 436.73108l0 10.047241" fill-rule="evenodd"/><path fill="#000000" fill-opacity="0.0" d="m36.10457 436.73108l0 10.047241" fill-rule="evenodd"/><path stroke="#000000" stroke-width="2.0" stroke-linejoin="round" stroke-linecap="butt" d="m36.10457 436.73108l0 10.047241" fill-rule="evenodd"/><path fill="#000000" fill-opacity="0.0" d="m28.104568 436.73108l0 10.047241" fill-rule="evenodd"/><path stroke="#000000" stroke-width="2.0" stroke-linejoin="round" stroke-linecap="butt" d="m28.104568 436.73108l0 10.047241" fill-rule="evenodd"/><path fill="#000000" fill-opacity="0.0" d="m20.104568 436.73108l0 10.047241" fill-rule="evenodd"/><path stroke="#000000" stroke-width="2.0" stroke-linejoin="round" stroke-linecap="butt" d="m20.104568 436.73108l0 10.047241" fill-rule="evenodd"/><path fill="#000000" fill-opacity="0.0" d="m61.12819 389.4975l-10.047245 0" fill-rule="evenodd"/><path stroke="#000000" stroke-width="2.0" stroke-linejoin="round" stroke-linecap="butt" d="m61.12819 389.4975l-10.047245 0" fill-rule="evenodd"/><path fill="#000000" fill-opacity="0.0" d="m61.12819 380.10043l-10.047245 0" fill-rule="evenodd"/><path stroke="#000000" stroke-width="2.0" stroke-linejoin="round" stroke-linecap="butt" d="m61.12819 380.10043l-10.047245 0" fill-rule="evenodd"/><path fill="#000000" fill-opacity="0.0" d="m61.12819 370.7034l-10.047245 0" fill-rule="evenodd"/><path stroke="#000000" stroke-width="2.0" stroke-linejoin="round" stroke-linecap="butt" d="m61.12819 370.7034l-10.047245 0" fill-rule="evenodd"/><path fill="#000000" fill-opacity="0.0" d="m61.12819 361.30634l-10.047245 0" fill-rule="evenodd"/><path stroke="#000000" stroke-width="2.0" stroke-linejoin="round" stroke-linecap="butt" d="m61.12819 361.30634l-10.047245 0" fill-rule="evenodd"/><path fill="#000000" fill-opacity="0.0" d="m61.12819 427.0857l-10.047245 0" fill-rule="evenodd"/><path stroke="#000000" stroke-width="2.0" stroke-linejoin="round" stroke-linecap="butt" d="m61.12819 427.0857l-10.047245 0" fill-rule="evenodd"/><path fill="#000000" fill-opacity="0.0" d="m61.12819 417.68863l-10.047245 0" fill-rule="evenodd"/><path stroke="#000000" stroke-width="2.0" stroke-linejoin="round" stroke-linecap="butt" d="m61.12819 417.68863l-10.047245 0" fill-rule="evenodd"/><path fill="#000000" fill-opacity="0.0" d="m61.12819 408.2916l-10.047245 0" fill-rule="evenodd"/><path stroke="#000000" stroke-width="2.0" stroke-linejoin="round" stroke-linecap="butt" d="m61.12819 408.2916l-10.047245 0" fill-rule="evenodd"/><path fill="#000000" fill-opacity="0.0" d="m61.12819 398.89453l-10.047245 0" fill-rule="evenodd"/><path stroke="#000000" stroke-width="2.0" stroke-linejoin="round" stroke-linecap="butt" d="m61.12819 398.89453l-10.047245 0" fill-rule="evenodd"/><path fill="#000000" fill-opacity="0.0" d="m11.704702 389.4975l-10.047244 0" fill-rule="evenodd"/><path stroke="#000000" stroke-width="2.0" stroke-linejoin="round" stroke-linecap="butt" d="m11.704702 389.4975l-10.047244 0" fill-rule="evenodd"/><path fill="#000000" fill-opacity="0.0" d="m11.704702 380.10043l-10.047244 0" fill-rule="evenodd"/><path stroke="#000000" stroke-width="2.0" stroke-linejoin="round" stroke-linecap="butt" d="m11.704702 380.10043l-10.047244 0" fill-rule="evenodd"/><path fill="#000000" fill-opacity="0.0" d="m11.704702 370.7034l-10.047244 0" fill-rule="evenodd"/><path stroke="#000000" stroke-width="2.0" stroke-linejoin="round" stroke-linecap="butt" d="m11.704702 370.7034l-10.047244 0" fill-rule="evenodd"/><path fill="#000000" fill-opacity="0.0" d="m11.704702 361.30634l-10.047244 0" fill-rule="evenodd"/><path stroke="#000000" stroke-width="2.0" stroke-linejoin="round" stroke-linecap="butt" d="m11.704702 361.30634l-10.047244 0" fill-rule="evenodd"/><path fill="#000000" fill-opacity="0.0" d="m11.704702 427.0857l-10.047244 0" fill-rule="evenodd"/><path stroke="#000000" stroke-width="2.0" stroke-linejoin="round" stroke-linecap="butt" d="m11.704702 427.0857l-10.047244 0" fill-rule="evenodd"/><path fill="#000000" fill-opacity="0.0" d="m11.704702 417.68863l-10.047244 0" fill-rule="evenodd"/><path stroke="#000000" stroke-width="2.0" stroke-linejoin="round" stroke-linecap="butt" d="m11.704702 417.68863l-10.047244 0" fill-rule="evenodd"/><path fill="#000000" fill-opacity="0.0" d="m11.704702 408.2916l-10.047244 0" fill-rule="evenodd"/><path stroke="#000000" stroke-width="2.0" stroke-linejoin="round" stroke-linecap="butt" d="m11.704702 408.2916l-10.047244 0" fill-rule="evenodd"/><path fill="#000000" fill-opacity="0.0" d="m11.704702 398.89453l-10.047244 0" fill-rule="evenodd"/><path stroke="#000000" stroke-width="2.0" stroke-linejoin="round" stroke-linecap="butt" d="m11.704702 398.89453l-10.047244 0" fill-rule="evenodd"/><path fill="#666666" d="m22.337248 48.884632l18.110235 0l0 18.110233l-18.110235 0z" fill-rule="evenodd"/><path stroke="#000000" stroke-width="2.0" stroke-linejoin="round" stroke-linecap="butt" d="m22.337248 48.884632l18.110235 0l0 18.110233l-18.110235 0z" fill-rule="evenodd"/><path fill="#666666" d="m22.337248 141.21117l18.110235 0l0 18.11023l-18.110235 0z" fill-rule="evenodd"/><path stroke="#000000" stroke-width="2.0" stroke-linejoin="round" stroke-linecap="butt" d="m22.337248 141.21117l18.110235 0l0 18.11023l-18.110235 0z" fill-rule="evenodd"/><path fill="#666666" d="m22.337248 184.73828l18.110235 0l0 18.110245l-18.110235 0z" fill-rule="evenodd"/><path stroke="#000000" stroke-width="2.0" stroke-linejoin="round" stroke-linecap="butt" d="m22.337248 184.73828l18.110235 0l0 18.110245l-18.110235 0z" fill-rule="evenodd"/><path fill="#666666" d="m22.337248 228.26541l18.110235 0l0 18.11023l-18.110235 0z" fill-rule="evenodd"/><path stroke="#000000" stroke-width="2.0" stroke-linejoin="round" stroke-linecap="butt" d="m22.337248 228.26541l18.110235 0l0 18.11023l-18.110235 0z" fill-rule="evenodd"/><path fill="#666666" d="m22.515726 271.79254l18.110235 0l0 18.11023l-18.110235 0z" fill-rule="evenodd"/><path stroke="#000000" stroke-width="2.0" stroke-linejoin="round" stroke-linecap="butt" d="m22.515726 271.79254l18.110235 0l0 18.11023l-18.110235 0z" fill-rule="evenodd"/><path fill="#666666" d="m22.248009 364.18143l18.110237 0l0 18.11023l-18.110237 0z" fill-rule="evenodd"/><path stroke="#000000" stroke-width="2.0" stroke-linejoin="round" stroke-linecap="butt" d="m22.248009 364.18143l18.110237 0l0 18.11023l-18.110237 0z" fill-rule="evenodd"/><path fill="#666666" d="m22.426487 407.70853l18.110237 0l0 18.11026l-18.110237 0z" fill-rule="evenodd"/><path stroke="#000000" stroke-width="2.0" stroke-linejoin="round" stroke-linecap="butt" d="m22.426487 407.70853l18.110237 0l0 18.11026l-18.110237 0z" fill-rule="evenodd"/></g></svg>
